<?xml version="1.0" encoding="utf-8"?>
<!-- Generator: Adobe Illustrator 16.0.4, SVG Export Plug-In . SVG Version: 6.00 Build 0)  -->
<!DOCTYPE svg PUBLIC "-//W3C//DTD SVG 1.1//EN" "http://www.w3.org/Graphics/SVG/1.1/DTD/svg11.dtd">
<svg version="1.1" id="Layer_1" xmlns="http://www.w3.org/2000/svg" xmlns:xlink="http://www.w3.org/1999/xlink" x="0px" y="0px"
	 width="106.667px" height="53.333px" viewBox="0 0 106.667 53.333" enable-background="new 0 0 106.667 53.333"
	 xml:space="preserve">
<g>
	<path fill="#A4AF3A" d="M28.63,36.276H16.653l-2.32,7.453H7.419L19.161,9.604h7.008l11.695,34.125H30.95L28.63,36.276z
		 M18.294,31.002h8.695l-4.312-13.828h-0.07L18.294,31.002z"/>
	<path fill="#A4AF3A" d="M48.153,31.354v12.375H41.31V9.604h13.594c4,0,7.105,0.984,9.316,2.953s3.316,4.617,3.316,7.945
		s-1.105,5.969-3.316,7.922s-5.316,2.93-9.316,2.93H48.153z M48.153,26.081h6.75c1.953,0,3.41-0.512,4.371-1.535
		s1.441-2.355,1.441-3.996c0-1.672-0.48-3.035-1.441-4.09s-2.418-1.582-4.371-1.582h-6.75V26.081z"/>
	<path fill="#A4AF3A" d="M79.419,30.088v13.641h-6.844V9.604h13.406c3.938,0,6.902,0.844,8.895,2.531s2.988,4.164,2.988,7.43
		c0,1.906-0.496,3.469-1.488,4.688s-2.449,2.203-4.371,2.953v0.07c2.016,0.625,3.441,1.613,4.277,2.965s1.254,3.082,1.254,5.191
		v2.508c0,0.953,0.125,1.922,0.375,2.906s0.695,1.727,1.336,2.227v0.656h-7.008c-0.641-0.516-1.055-1.355-1.242-2.52
		s-0.281-2.27-0.281-3.316v-2.414c0-1.75-0.426-3.086-1.277-4.008s-2.137-1.383-3.855-1.383H79.419z M79.419,24.815h5.906
		c1.953,0,3.395-0.398,4.324-1.195s1.395-2.008,1.395-3.633c0-1.609-0.438-2.863-1.312-3.762s-2.242-1.348-4.102-1.348h-6.211
		V24.815z"/>
</g>
</svg>
