<?xml version="1.0" encoding="utf-8"?>
<!-- Generator: Adobe Illustrator 16.0.4, SVG Export Plug-In . SVG Version: 6.00 Build 0)  -->
<!DOCTYPE svg PUBLIC "-//W3C//DTD SVG 1.1//EN" "http://www.w3.org/Graphics/SVG/1.1/DTD/svg11.dtd">
<svg version="1.1" id="Layer_1" xmlns="http://www.w3.org/2000/svg" xmlns:xlink="http://www.w3.org/1999/xlink" x="0px" y="0px"
	 width="106.667px" height="53.333px" viewBox="0 0 106.667 53.333" enable-background="new 0 0 106.667 53.333"
	 xml:space="preserve">
<g>
	<path fill="#A4AF3A" d="M28.197,36.276H16.22l-2.32,7.453H6.986L18.728,9.604h7.008l11.695,34.125h-6.914L28.197,36.276z
		 M17.861,31.002h8.695l-4.312-13.828h-0.07L17.861,31.002z"/>
	<path fill="#A4AF3A" d="M67.478,9.604v22.641c0,3.906-1.242,6.879-3.727,8.918s-5.82,3.059-10.008,3.059
		c-4.156,0-7.469-1.02-9.938-3.059s-3.703-5.012-3.703-8.918V9.604h6.867v22.641c0,2.297,0.594,3.992,1.781,5.086
		s2.852,1.641,4.992,1.641c2.188,0,3.879-0.547,5.074-1.641s1.793-2.789,1.793-5.086V9.604H67.478z"/>
	<path fill="#A4AF3A" d="M99.681,39.37c-1.031,1.281-2.598,2.41-4.699,3.387s-4.832,1.465-8.191,1.465
		c-4.25,0-7.676-1.277-10.277-3.832s-3.902-5.941-3.902-10.16v-7.125c0-4.203,1.25-7.586,3.75-10.148s5.789-3.844,9.867-3.844
		c4.281,0,7.484,0.977,9.609,2.93s3.406,4.695,3.844,8.227h-6.656c-0.312-1.906-0.969-3.363-1.969-4.371s-2.547-1.512-4.641-1.512
		c-2.141,0-3.84,0.797-5.098,2.391s-1.887,3.688-1.887,6.281v7.172c0,2.641,0.652,4.758,1.957,6.352s3.105,2.391,5.402,2.391
		c1.625,0,2.91-0.16,3.855-0.48s1.676-0.73,2.191-1.23v-6.188h-6.047v-4.734h12.891V39.37z"/>
</g>
</svg>
