<?xml version="1.0" encoding="utf-8"?>
<!-- Generator: Adobe Illustrator 16.0.4, SVG Export Plug-In . SVG Version: 6.00 Build 0)  -->
<!DOCTYPE svg PUBLIC "-//W3C//DTD SVG 1.1//EN" "http://www.w3.org/Graphics/SVG/1.1/DTD/svg11.dtd">
<svg version="1.1" id="Layer_1" xmlns="http://www.w3.org/2000/svg" xmlns:xlink="http://www.w3.org/1999/xlink" x="0px" y="0px"
	 width="75.333px" height="124px" viewBox="0 0 75.333 124" enable-background="new 0 0 75.333 124" xml:space="preserve">
<g>
	<path fill="#A4AF3A" d="M41.031,66.052c0,0-0.093-0.614,0.695-0.795c0,0,16.786-4.907,13.667-23.622l-7.021-21.696
		c0,0-1.258-1.47-1.876,0.034L40.43,30.05l-7.523-8.602c-0.436-0.32-1.048-0.228-1.368,0.207l-5.231,10.474l-9.07-7.469
		c0,0-1.268-0.607-1.748,0.877c0,0-0.665,19.397,1.041,25.063c0,0,2.766,15.238,18.587,15.378c0,0,0.63-0.189,0.89,0.9
		c0,0,3.343,9.762,3.932,15.599c0.59,5.836,0.745,20.992,0.745,20.992s-0.123,0.986,0.928,1.051l1.268,0.159
		c0,0,1.098,0.315,1.198-1.292c0,0,1.169-13.833-0.054-23.056C42.8,71.11,41.031,66.052,41.031,66.052z"/>
	<path fill="#A4AF3A" d="M67.023,65.835c0.083-0.574-0.716-0.545-0.716-0.545c-7.749-0.316-12.833,2.459-12.833,2.459
		c-9.594,5.635-7.431,14.494-7.431,14.494c-0.027,0.687,0.942,0.435,0.942,0.435c9.31-0.619,14.194-5.454,14.194-5.454
		C67.258,72.306,67.023,65.835,67.023,65.835z"/>
</g>
</svg>
