<?xml version="1.0" encoding="utf-8"?>
<!-- Generator: Adobe Illustrator 16.0.4, SVG Export Plug-In . SVG Version: 6.00 Build 0)  -->
<!DOCTYPE svg PUBLIC "-//W3C//DTD SVG 1.1//EN" "http://www.w3.org/Graphics/SVG/1.1/DTD/svg11.dtd">
<svg version="1.1" id="Layer_1" xmlns="http://www.w3.org/2000/svg" xmlns:xlink="http://www.w3.org/1999/xlink" x="0px" y="0px"
	 width="75.333px" height="124px" viewBox="0 0 75.333 124" enable-background="new 0 0 75.333 124" xml:space="preserve">
<g>
	<path fill="#A4AF3A" d="M36.991,9.674L23.545,47.772c0,0-1.002,1.812,0.566,1.812c1.566,0,3.628-0.067,3.628-0.067
		s0.74,0,0.262,1.343l-16.157,45.93c0,0-1.264,2.079,0.74,2.079l50.728,0.077c0,0,1.7,0.058,0.807-1.788L47.788,51.06
		c0,0-0.807-1.51,0.326-1.51h2.965c0,0,1.67-0.044,0.994-1.453L38.601,9.674C38.601,9.674,37.839,7.897,36.991,9.674z"/>
	<path fill="#A4AF3A" d="M42.248,108.32c0,0.314-0.312,0.569-0.695,0.569h-7.384c-0.384,0-0.695-0.255-0.695-0.569v-6.487
		c0-0.315,0.312-0.57,0.695-0.57h7.384c0.384,0,0.695,0.255,0.695,0.57V108.32z"/>
</g>
</svg>
