<?xml version="1.0" encoding="utf-8"?>
<!-- Generator: Adobe Illustrator 16.0.4, SVG Export Plug-In . SVG Version: 6.00 Build 0)  -->
<!DOCTYPE svg PUBLIC "-//W3C//DTD SVG 1.1//EN" "http://www.w3.org/Graphics/SVG/1.1/DTD/svg11.dtd">
<svg version="1.1" id="Layer_1" xmlns="http://www.w3.org/2000/svg" xmlns:xlink="http://www.w3.org/1999/xlink" x="0px" y="0px"
	 width="104px" height="124px" viewBox="0 0 104 124" enable-background="new 0 0 104 124" xml:space="preserve">
<g>
	<path fill="#A4AF3A" d="M13.491,60.749c0,0,25.732,14.657,31.791,45.798c0,0,2.159,9.682,3.553-0.792
		c0,0,3.151-30.438-32.286-46.893C16.548,58.862,6.396,55.22,13.491,60.749z"/>
	<path fill="#A4AF3A" d="M24.803,41.22c0,0,14.312,18.31,19.649,36.576c0,0,2.696,8.013,3.205-1.616c0,0,2.423-13.659-19.936-36.036
		C27.722,40.144,20.679,34.855,24.803,41.22z"/>
	<path fill="#A4AF3A" d="M33.119,19.651c0,0,23.363,42.962,21.121,83.05c0,0,0.901,5.615,3.459-2.398c0,0,12.58-36.25-20.837-82.538
		C36.862,17.764,26.701,6.732,33.119,19.651z"/>
	<path fill="#A4AF3A" d="M61.977,68.15c-0.229,3.308,1.935-30.324,19.704-42.318c0,0,8.016-4.521,3.349,1.656
		c0,0-9.884,8.022-19.952,39.822C65.078,67.31,61.316,77.705,61.977,68.15z"/>
	<path fill="#A4AF3A" d="M62.758,88.638c0,0-2.693-20.163,17.956-30.279c0,0,8.438-3.119,2.801,2.112
		c0,0-13.527,12.441-17.961,27.922C65.554,88.393,63.198,93.423,62.758,88.638z"/>
	<path fill="#A4AF3A" d="M61.039,103.782c0,0,2.523-13.03,11.766-16.208c0,0,7.465-1.326,1.567,3.471c0,0-7.429,7.439-11.547,14.75
		C62.825,105.794,60.359,107.732,61.039,103.782z"/>
</g>
</svg>
