<?xml version="1.0" encoding="utf-8"?>
<!-- Generator: Adobe Illustrator 16.0.4, SVG Export Plug-In . SVG Version: 6.00 Build 0)  -->
<!DOCTYPE svg PUBLIC "-//W3C//DTD SVG 1.1//EN" "http://www.w3.org/Graphics/SVG/1.1/DTD/svg11.dtd">
<svg version="1.1" id="Layer_1" xmlns="http://www.w3.org/2000/svg" xmlns:xlink="http://www.w3.org/1999/xlink" x="0px" y="0px"
	 width="57.333px" height="124px" viewBox="0 0 57.333 124" enable-background="new 0 0 57.333 124" xml:space="preserve">
<g>
	<path fill="#A4AF3A" d="M48.48,24.908c-0.045-2.35-2.764-2.211-2.764-2.211c-4.884,0.139-7.694,1.797-7.694,1.797
		c-0.921,0.737-0.737-0.646-0.737-0.646c0.047-8.846-6.035-13.638-6.035-13.638c-2.488-2.027-4.885,0.415-4.885,0.415
		c-4.699,3.317-5.667,13.361-5.667,13.361c0.185,1.935-1.013,0.645-1.013,0.645c-4.885-2.534-8.662-1.889-8.662-1.889
		c-1.797,0-1.936,2.027-1.936,2.027c-1.197,9.491,8.248,14.374,8.248,14.374c1.059,0.277,2.395-0.322,2.395-0.322
		c9.308-4.93,16.725-0.461,16.725-0.461c2.166,1.015,3.363,0.554,3.363,0.554C49.494,35.091,48.48,24.908,48.48,24.908z"/>
	<path fill="#A4AF3A" d="M39.891,41.91c0,0-10.899-8.155-22.28,0.093c0,0-5.85,4.376-4.191,14.696c0,0,0.484,5.301,0.912,5.784
		s11.368-0.255,12.543,0.713c1.176,0.968-11.877,1.149-12.18,1.497c-0.304,0.348,1.14,5.568,1.293,5.906
		c0.154,0.338,9.505-0.216,10.887,0.614c1.383,0.829-10.226,1.106-10.456,1.659s1.058,6.571,1.403,6.811
		c0.348,0.238,8.846-0.246,9.053,0.376s-7.973,0.967-8.5,1.659c-0.528,0.691,5.641,23.358,5.641,23.358s2.949,4.377,5.252,4.238
		c2.305-0.138,4.221-4.331,4.221-4.331l10.596-48.377C45.742,46.287,39.891,41.91,39.891,41.91z"/>
</g>
</svg>
