<?xml version="1.0" encoding="utf-8"?>
<!-- Generator: Adobe Illustrator 16.0.4, SVG Export Plug-In . SVG Version: 6.00 Build 0)  -->
<!DOCTYPE svg PUBLIC "-//W3C//DTD SVG 1.1//EN" "http://www.w3.org/Graphics/SVG/1.1/DTD/svg11.dtd">
<svg version="1.1" id="Layer_1" xmlns="http://www.w3.org/2000/svg" xmlns:xlink="http://www.w3.org/1999/xlink" x="0px" y="0px"
	 width="104px" height="124px" viewBox="0 0 104 124" enable-background="new 0 0 104 124" xml:space="preserve">
<g>
	<path fill="#A4AF3A" d="M49.465,81.935c0,0,13.378-10.624,24.755-19.933c0,0,1.719-2.079,3.184-0.183c0,0,1.244,0.898-0.69,2.488
		c0,0-25.065,21.401-25.581,22.322c-0.518,0.92,0.779,10.602,0.779,10.602s1.347,2.846-3.395,2.586c0,0-2.895,0.604-3.412-2.5
		c0,0,0.857-8.793-0.004-10.17c-0.861-1.379-15.896-13.792-15.896-13.792s-2.044-1.86-0.8-3.104c0,0,1.382-1.521,4.593,1.384
		l12.93,10.343C45.927,81.978,47.856,83.257,49.465,81.935z"/>
	<path fill="#A4AF3A" d="M42.019,88.288c0.389,0.996-25.422,9.979-34.268-4.924c0,0-16.587-25.071,13.086-34.299
		c0,0-13.444-12.107,2.928-23.702c0,0,15.713-7.674,20.553,15.347c0,0,49.859-27.194,56.134,13.901c0,0,7.776,48.607-43.642,34.23
		c-0.283-0.079-3.706-0.967-3.348-1.478s25.324-21.329,25.324-21.329s3.594-2.902,0.414-5.943c0,0-2.14-3.013-5.844-0.626
		L50.532,77.77c0,0-1.703,2.473-4.303,0.511l-10.754-8.44c0,0-4.78-4.944-9.082-0.938c0,0-2.039,2.919,1.665,6.671L40.884,87.21
		C40.884,87.21,41.783,87.686,42.019,88.288z"/>
</g>
</svg>
