<?xml version="1.0" encoding="utf-8"?>
<!-- Generator: Adobe Illustrator 16.0.4, SVG Export Plug-In . SVG Version: 6.00 Build 0)  -->
<!DOCTYPE svg PUBLIC "-//W3C//DTD SVG 1.1//EN" "http://www.w3.org/Graphics/SVG/1.1/DTD/svg11.dtd">
<svg version="1.1" id="Layer_1" xmlns="http://www.w3.org/2000/svg" xmlns:xlink="http://www.w3.org/1999/xlink" x="0px" y="0px"
	 width="106.667px" height="53.333px" viewBox="0 0 106.667 53.333" enable-background="new 0 0 106.667 53.333"
	 xml:space="preserve">
<g>
	<path fill="#A4AF3A" d="M10.501,43.729V9.604h11.016c4.734,0,8.488,1.355,11.262,4.066s4.16,6.309,4.16,10.793v4.43
		c0,4.516-1.391,8.117-4.172,10.805s-6.57,4.031-11.367,4.031H10.501z M17.345,14.877v23.602h3.703c3.125,0,5.41-0.848,6.855-2.543
		s2.168-4.043,2.168-7.043v-4.477c0-3.016-0.715-5.359-2.145-7.031s-3.684-2.508-6.762-2.508H17.345z"/>
	<path fill="#A4AF3A" d="M63.447,28.729H49.314v9.75h16.523v5.25H42.47V9.604h23.32v5.273H49.314v8.578h14.133V28.729z"/>
	<path fill="#A4AF3A" d="M96.142,32.456c-0.281,3.766-1.566,6.668-3.855,8.707s-5.512,3.059-9.668,3.059s-7.434-1.289-9.832-3.867
		s-3.598-6.008-3.598-10.289v-6.773c0-4.234,1.219-7.656,3.656-10.266s5.695-3.914,9.773-3.914c4.219,0,7.438,1.023,9.656,3.07
		s3.516,5,3.891,8.859h-6.82c-0.203-2.234-0.805-3.902-1.805-5.004s-2.641-1.652-4.922-1.652c-2.094,0-3.719,0.816-4.875,2.449
		s-1.734,3.77-1.734,6.41v6.82c0,2.703,0.559,4.863,1.676,6.48s2.762,2.426,4.934,2.426s3.781-0.531,4.828-1.594
		s1.664-2.703,1.852-4.922H96.142z"/>
</g>
</svg>
