<?xml version="1.0" encoding="utf-8"?>
<!-- Generator: Adobe Illustrator 16.0.4, SVG Export Plug-In . SVG Version: 6.00 Build 0)  -->
<!DOCTYPE svg PUBLIC "-//W3C//DTD SVG 1.1//EN" "http://www.w3.org/Graphics/SVG/1.1/DTD/svg11.dtd">
<svg version="1.1" id="Layer_1" xmlns="http://www.w3.org/2000/svg" xmlns:xlink="http://www.w3.org/1999/xlink" x="0px" y="0px"
	 width="106.667px" height="53.333px" viewBox="0 0 106.667 53.333" enable-background="new 0 0 106.667 53.333"
	 xml:space="preserve">
<g>
	<path fill="#A4AF3A" d="M33.962,29.549H19.853v14.18h-6.844V9.604h23.344v5.273h-16.5v9.398h14.109V29.549z"/>
	<path fill="#A4AF3A" d="M61.524,28.729H47.392v9.75h16.523v5.25H40.548V9.604h23.32v5.273H47.392v8.578h14.133V28.729z"/>
	<path fill="#A4AF3A" d="M68.11,43.729V9.604h11.719c4.078,0,7.195,0.766,9.352,2.297s3.234,3.883,3.234,7.055
		c0,1.609-0.402,3.023-1.207,4.242s-1.996,2.133-3.574,2.742v0.07c2.031,0.438,3.543,1.363,4.535,2.777s1.488,3.082,1.488,5.004
		c0,3.328-1.035,5.816-3.105,7.465s-5.113,2.473-9.129,2.473H68.11z M74.954,23.901h5.109c1.844,0,3.223-0.367,4.137-1.102
		s1.371-1.836,1.371-3.305c0-1.625-0.461-2.801-1.383-3.527s-2.375-1.09-4.359-1.09h-4.875V23.901z M74.954,28.635v9.844h6.469
		c1.812,0,3.168-0.414,4.066-1.242s1.348-1.992,1.348-3.492c0-1.656-0.395-2.922-1.184-3.797s-2.059-1.312-3.809-1.312H74.954z"/>
</g>
</svg>
