<?xml version="1.0" encoding="utf-8"?>
<!-- Generator: Adobe Illustrator 16.0.4, SVG Export Plug-In . SVG Version: 6.00 Build 0)  -->
<!DOCTYPE svg PUBLIC "-//W3C//DTD SVG 1.1//EN" "http://www.w3.org/Graphics/SVG/1.1/DTD/svg11.dtd">
<svg version="1.1" id="Layer_1" xmlns="http://www.w3.org/2000/svg" xmlns:xlink="http://www.w3.org/1999/xlink" x="0px" y="0px"
	 width="52.75px" height="55px" viewBox="0 0 52.75 55" enable-background="new 0 0 52.75 55" xml:space="preserve">
<path fill="#A4AF3A" d="M42.168,46.242c0.369-0.283,0.131-0.707,0.131-0.707L34.02,34.648c2.014-1.98,2.906-4.216,3.332-7.21
	c1.045-7.332-4.117-14.109-11.531-15.144c-7.412-1.028-14.268,4.072-15.311,11.403c-1.045,7.326,4.119,14.109,11.531,15.137
	c3.357,0.471,6.08,0.058,8.721-1.635l8.215,10.781c0,0,0.262,0.322,0.641,0.111C39.893,47.939,41.885,46.455,42.168,46.242z
	 M13.871,24.217c0.85-5.975,5.424-9.38,11.467-8.538c6.045,0.842,9.488,5.363,8.637,11.338c-0.852,5.976-5.449,9.54-11.467,8.541
	C18.678,34.923,12.68,32.589,13.871,24.217z"/>
</svg>
