<?xml version="1.0" encoding="utf-8"?>
<!-- Generator: Adobe Illustrator 16.0.4, SVG Export Plug-In . SVG Version: 6.00 Build 0)  -->
<!DOCTYPE svg PUBLIC "-//W3C//DTD SVG 1.1//EN" "http://www.w3.org/Graphics/SVG/1.1/DTD/svg11.dtd">
<svg version="1.1" id="Layer_1" xmlns="http://www.w3.org/2000/svg" xmlns:xlink="http://www.w3.org/1999/xlink" x="0px" y="0px"
	 width="106.667px" height="53.333px" viewBox="0 0 106.667 53.333" enable-background="new 0 0 106.667 53.333"
	 xml:space="preserve">
<g>
	<path fill="#A4AF3A" d="M24.576,9.358h6.82v23.883c0,3.359-1.055,5.988-3.164,7.887s-4.844,2.848-8.203,2.848
		c-3.641,0-6.484-0.855-8.531-2.566s-3.07-4.324-3.07-7.84h6.844c0,1.875,0.387,3.203,1.16,3.984s1.973,1.172,3.598,1.172
		c1.453,0,2.574-0.465,3.363-1.395s1.184-2.293,1.184-4.09V9.358z"/>
	<path fill="#A4AF3A" d="M64.677,9.358v22.641c0,3.906-1.242,6.879-3.727,8.918s-5.82,3.059-10.008,3.059
		c-4.156,0-7.469-1.02-9.938-3.059s-3.703-5.012-3.703-8.918V9.358h6.867v22.641c0,2.297,0.594,3.992,1.781,5.086
		s2.852,1.641,4.992,1.641c2.188,0,3.879-0.547,5.074-1.641s1.793-2.789,1.793-5.086V9.358H64.677z"/>
	<path fill="#A4AF3A" d="M98.24,43.483h-6.82L77.568,20.045l-0.07,0.023v23.414h-6.844V9.358h6.844l13.852,23.414l0.07-0.023V9.358
		h6.82V43.483z"/>
</g>
</svg>
