<?xml version="1.0" encoding="utf-8"?>
<!-- Generator: Adobe Illustrator 16.0.4, SVG Export Plug-In . SVG Version: 6.00 Build 0)  -->
<!DOCTYPE svg PUBLIC "-//W3C//DTD SVG 1.1//EN" "http://www.w3.org/Graphics/SVG/1.1/DTD/svg11.dtd">
<svg version="1.1" id="Layer_1" xmlns="http://www.w3.org/2000/svg" xmlns:xlink="http://www.w3.org/1999/xlink" x="0px" y="0px"
	 width="76.5px" height="84px" viewBox="0 0 76.5 84" enable-background="new 0 0 76.5 84" xml:space="preserve">
<g>
	<path fill="#363465" d="M37.077,23.789c2.532-6.507,4.717-9.387,4.717-9.387c1.902-1.99-3.761-1.474-3.761-1.474
		c-14.973,1.343-15.952,13.145-15.952,13.145c-0.355,4.492,0.642,5.635,1.278,5.916c0,0,1.538,0.247,3.371,0
		C28.563,31.741,34.695,29.907,37.077,23.789z M24.557,29.985c0,0-0.605,1.057-0.297-0.032c0,0,3.24-10.582,10.559-12.69
		c0,0,1.989-0.378,0.574,0.552C35.393,17.814,28.521,21.958,24.557,29.985z"/>
	<g>
		<path fill="#E5D5C4" d="M8.09,58.211c0.583,0.328,0.989-0.17,0.989-0.17l12.638-16.782c4.064,2.63,8.252,3.277,13.419,2.55
			c11.407-1.607,19.354-12.155,17.746-23.561C51.275,8.843,40.725,0.9,29.32,2.505C17.915,4.111,9.97,14.66,11.578,26.065
			c0.656,4.67,2.031,8.143,5.129,11.231L3.963,54.232c0,0-0.363,0.656,0.203,1.099C4.599,55.668,7.668,57.978,8.09,58.211z
			 M34.418,38.706c-9.261,1.559-16.335-3.989-17.646-13.288c-1.31-9.3,3.991-16.337,13.288-17.646
			c9.302-1.31,16.34,3.989,17.648,13.286C49.543,34.086,40.313,37.713,34.418,38.706z"/>
		<path fill="#E5D5C4" d="M43.657,62.452c0,0,1.278,0.015-0.074-3.49l-8.467-21.967c0,0-1.593-4.139,1.508-5.329
			c0,0,3.579-1.717,5.257,2.637l3.5,9.083c0,0,0.368,0.651,0.658,0c0,0,0.555-2.025,2.899-2.133c0,0,2.608-0.656,3.963,2.446
			c0,0,0.265,0.691,0.526,0.05c0,0,0.67-2.229,3.438-2.47c0,0,2.58-0.072,3.627,2.643c0,0,0.245,0.638,0.53,0.145
			c0,0,0.361-1.951,2.81-2.451c0,0,3.013-0.432,4.144,2.504l3.225,8.363c0,0,2.097,7.448,1.333,10.965c0,0-0.866,5.675,0.369,9.101
			c0,0,0.428,1.107-0.606,1.507L54.43,80.94c0,0-0.96,0.37-1.301-0.516c0,0-1.812-5.578-6.447-7.268L32.22,66.774
			c0,0-2.556-1.685-1.605-4.47c0,0,0.868-4.057,5.778-2.087C36.393,60.217,41.698,62.868,43.657,62.452z"/>
	</g>
</g>
</svg>
