<?xml version="1.0" encoding="utf-8"?>
<!-- Generator: Adobe Illustrator 16.0.4, SVG Export Plug-In . SVG Version: 6.00 Build 0)  -->
<!DOCTYPE svg PUBLIC "-//W3C//DTD SVG 1.1//EN" "http://www.w3.org/Graphics/SVG/1.1/DTD/svg11.dtd">
<svg version="1.1" id="Layer_1" xmlns="http://www.w3.org/2000/svg" xmlns:xlink="http://www.w3.org/1999/xlink" x="0px" y="0px"
	 width="80.75px" height="100px" viewBox="0 0 80.75 100" enable-background="new 0 0 80.75 100" xml:space="preserve">
<g>
	<path fill="#363465" d="M30.801,7.799c0,0-5.138,14.987,10.478,26.717l19.38,12.887c0,0,11.559,6.595,13.043,10.787
		c0,0,0.606,3.203,2.227,0.779c0,0,8.65-10.942-5.567-21.356L47,22.051c0,0-12.945-7.571-14.146-13.637
		C32.854,8.414,31.555,4.725,30.801,7.799z"/>
	<path fill="#363465" d="M66.912,75.914c-9.015-4.193-10.592-8.404-9.376-11.382c0.526-1.283,1.143-2.45,1.143-2.45l0.03,0.017
		c-0.011-0.02-0.018-0.033-0.018-0.033c0.003-0.003,0.004-0.006,0.004-0.006l-0.02-0.015c0.043-0.103,0.09-0.2,0.133-0.297
		c1.972-4.529,4.251-7.9,3.092-10.262c-0.802-1.631,1.129-0.429,1.129-0.429c9.016,4.194,10.048,10.485,8.831,13.462
		c-0.524,1.284-1.388,3.021-1.388,3.021l-0.029-0.017c0.01,0.021,0.018,0.033,0.018,0.033l-0.008-0.002
		c0.016,0.016,0.023,0.023,0.023,0.023c-0.043,0.103-0.089,0.201-0.133,0.295c-1.973,4.531-2.656,4.344-2.062,7.096
		C68.664,76.746,66.912,75.914,66.912,75.914z"/>
	<path fill="#363465" d="M28.418,73.92c0.404,17.338,5.078,20.164,5.078,20.164c2.805,1.73-1.254,1.557-1.254,1.557
		C9.051,95.556,8.664,73.844,8.664,73.844l-0.383-50.21C7.877,6.297,3.203,3.467,3.203,3.467C0.398,1.739,4.458,1.911,4.458,1.911
		c23.191,0.086,23.579,21.796,23.579,21.796L28.418,73.92z"/>
	<path fill="#363465" d="M70.768,96.116c0.094-15.046-5.36-20.046-11.274-20.31c-2.55-0.114-8.422-0.108-8.422-0.108v0.052
		c-0.024-0.029-0.039-0.047-0.039-0.047s-0.015,0-0.022,0V75.67c-0.206-0.008-0.402-0.01-0.599-0.01
		c-9.094-0.236-14.583,1.134-17.606-1.98c-2.092-2.153-1.604,1.266-1.604,1.266c-0.094,15.046,5.359,20.049,11.275,20.312
		c2.549,0.112,8.42,0.107,8.42,0.107v-0.054c0.024,0.028,0.039,0.045,0.039,0.045v-0.011c0.014,0.03,0.022,0.049,0.022,0.049
		c0.206,0.007,0.402,0.007,0.599,0.011c9.094,0.233,14.584-1.135,17.607,1.979C71.254,99.534,70.768,96.116,70.768,96.116z"/>
</g>
</svg>
