<?xml version="1.0" encoding="utf-8"?>
<!-- Generator: Adobe Illustrator 16.0.4, SVG Export Plug-In . SVG Version: 6.00 Build 0)  -->
<!DOCTYPE svg PUBLIC "-//W3C//DTD SVG 1.1//EN" "http://www.w3.org/Graphics/SVG/1.1/DTD/svg11.dtd">
<svg version="1.1" id="Layer_1" xmlns="http://www.w3.org/2000/svg" xmlns:xlink="http://www.w3.org/1999/xlink" x="0px" y="0px"
	 width="106.667px" height="53.333px" viewBox="0 0 106.667 53.333" enable-background="new 0 0 106.667 53.333"
	 xml:space="preserve">
<g>
	<path fill="#A4AF3A" d="M12.294,9.604l8.742,25.266h0.07l8.789-25.266h8.953v34.125h-6.844V33.557l0.68-15.305l-0.07-0.023
		l-9.234,25.5h-4.594L9.599,18.323l-0.07,0.023l0.68,15.211v10.172H3.365V9.604H12.294z"/>
	<path fill="#A4AF3A" d="M63.951,36.276H51.974l-2.32,7.453H42.74L54.482,9.604h7.008l11.695,34.125h-6.914L63.951,36.276z
		 M53.615,31.002h8.695l-4.312-13.828h-0.07L53.615,31.002z"/>
	<path fill="#A4AF3A" d="M83.474,30.088v13.641H76.63V9.604h13.406c3.938,0,6.902,0.844,8.895,2.531s2.988,4.164,2.988,7.43
		c0,1.906-0.496,3.469-1.488,4.688s-2.449,2.203-4.371,2.953v0.07c2.016,0.625,3.441,1.613,4.277,2.965s1.254,3.082,1.254,5.191
		v2.508c0,0.953,0.125,1.922,0.375,2.906s0.695,1.727,1.336,2.227v0.656h-7.008c-0.641-0.516-1.055-1.355-1.242-2.52
		s-0.281-2.27-0.281-3.316v-2.414c0-1.75-0.426-3.086-1.277-4.008s-2.137-1.383-3.855-1.383H83.474z M83.474,24.815h5.906
		c1.953,0,3.395-0.398,4.324-1.195s1.395-2.008,1.395-3.633c0-1.609-0.438-2.863-1.312-3.762s-2.242-1.348-4.102-1.348h-6.211
		V24.815z"/>
</g>
</svg>
