<?xml version="1.0" encoding="utf-8"?>
<!-- Generator: Adobe Illustrator 16.0.4, SVG Export Plug-In . SVG Version: 6.00 Build 0)  -->
<!DOCTYPE svg PUBLIC "-//W3C//DTD SVG 1.1//EN" "http://www.w3.org/Graphics/SVG/1.1/DTD/svg11.dtd">
<svg version="1.1" id="Layer_1" xmlns="http://www.w3.org/2000/svg" xmlns:xlink="http://www.w3.org/1999/xlink" x="0px" y="0px"
	 width="106.667px" height="53.333px" viewBox="0 0 106.667 53.333" enable-background="new 0 0 106.667 53.333"
	 xml:space="preserve">
<g>
	<path fill="#A4AF3A" d="M14.498,9.604L23.24,34.87h0.07L32.1,9.604h8.953v34.125h-6.844V33.557l0.68-15.305l-0.07-0.023
		l-9.234,25.5H20.99l-9.188-25.406l-0.07,0.023l0.68,15.211v10.172H5.568V9.604H14.498z"/>
	<path fill="#A4AF3A" d="M66.154,36.276H54.178l-2.32,7.453h-6.914L56.686,9.604h7.008l11.695,34.125h-6.914L66.154,36.276z
		 M55.818,31.002h8.695l-4.312-13.828h-0.07L55.818,31.002z"/>
	<path fill="#A4AF3A" d="M87.318,25.471l7.523-15.867h7.5L90.646,31.729v12h-6.82V31.377L72.295,9.604h7.5L87.318,25.471z"/>
</g>
</svg>
