<?xml version="1.0" encoding="utf-8"?>
<!-- Generator: Adobe Illustrator 16.0.4, SVG Export Plug-In . SVG Version: 6.00 Build 0)  -->
<!DOCTYPE svg PUBLIC "-//W3C//DTD SVG 1.1//EN" "http://www.w3.org/Graphics/SVG/1.1/DTD/svg11.dtd">
<svg version="1.1" id="Layer_1" xmlns="http://www.w3.org/2000/svg" xmlns:xlink="http://www.w3.org/1999/xlink" x="0px" y="0px"
	 width="89.5px" height="90px" viewBox="0 0 89.5 90" enable-background="new 0 0 89.5 90" xml:space="preserve">
<g>
	<path fill="#A4AF3A" d="M44.518,41.039c-2.042-3.892-3.342-11.722-3.342-11.722c0.062-1.944-2.201-2.086-2.201-2.086
		c-7.652-1.52-14.351-4.431-15.756-5.242c-1.412-0.834-1.779,0.223-1.779,0.223C-3.807,61.26,18.546,64.12,18.546,64.12
		c14.746,3.989,17.529-17.998,17.529-17.998c0.465-1.479,0.928,0.264,0.928,0.264c2.928,7.236,7.013,4.248,7.013,4.248
		C47.787,48.051,44.518,41.039,44.518,41.039z"/>
	<path fill="#A4AF3A" d="M22.84,19.579c0.506,0.185,8.715,4.371,17.726,5.891c0,0,1.106,0.318,1.421-0.639
		c0,0,2.171-4.844,2.563-7.422c0,0,0.343-1.279-0.435-1.719c0,0-10.892-2.24-17.169-5.678c0,0-1.415-0.811-1.852,0.223
		c0,0-2.029,4.025-2.615,8.258C22.479,18.493,22.334,19.393,22.84,19.579z"/>
	<path fill="#A4AF3A" d="M73.178,40.863c0,0-0.195-1.093-1.723-0.513c-1.518,0.58-8.602,2.342-16.4,2.576
		c0,0-2.254-0.232-2.51,1.678c0,0-2.57,7.525-5.227,11.019c0,0-4.389,6.366-1.094,9.558c0,0,3.539,3.615,7.619-3.035
		c0,0,0.747-1.654,0.957-0.108c0,0-0.872,22.139,14.33,20.638C69.131,82.674,91.646,83.534,73.178,40.863z"/>
	<path fill="#A4AF3A" d="M52.38,40.056c0.157,0.987,1.288,0.869,1.288,0.869c9.145-0.036,17.933-2.8,18.456-2.897
		c0.54-0.096,0.538-1.006,0.538-1.006c0.117-4.285-1.222-8.58-1.222-8.58c-0.259-1.09-1.786-0.51-1.786-0.51
		c-6.758,2.34-17.876,2.764-17.876,2.764c-0.833,0.293-0.703,1.602-0.703,1.602C51.033,34.923,52.38,40.056,52.38,40.056z"/>
</g>
</svg>
