<?xml version="1.0" encoding="utf-8"?>
<!-- Generator: Adobe Illustrator 16.0.4, SVG Export Plug-In . SVG Version: 6.00 Build 0)  -->
<!DOCTYPE svg PUBLIC "-//W3C//DTD SVG 1.1//EN" "http://www.w3.org/Graphics/SVG/1.1/DTD/svg11.dtd">
<svg version="1.1" id="Layer_1" xmlns="http://www.w3.org/2000/svg" xmlns:xlink="http://www.w3.org/1999/xlink" x="0px" y="0px"
	 width="112.333px" height="80.103px" viewBox="0 0 112.333 80.103" enable-background="new 0 0 112.333 80.103"
	 xml:space="preserve">
<g>
	<path fill-rule="evenodd" clip-rule="evenodd" fill="#353364" d="M19.22,35.358c-3.573,6.879-2.435,13.597,1.045,20.318
		c1.692,3.27,3.984,6.701,4.452,10.054c0.468,3.357-0.779,5.265-2.352,5.817C21.258,59.811,10.002,47.444,19.22,35.358z"/>
	<path fill-rule="evenodd" clip-rule="evenodd" fill="#353364" d="M29.413,62.021c6.775-3.48,4.266-7.393,7.051-12.408
		c-8.75,2.32-10.236,12.246-10.622,13.203C25.458,63.773,22.639,65.503,29.413,62.021z"/>
</g>
<g>
	<path fill-rule="evenodd" clip-rule="evenodd" fill="#F6F0EA" d="M53.859,39.437c0.504-1.813,0.996-2.252,2.721-2.255
		c9.826-0.014,19.65-0.013,29.473,0c1.629,0.001,2.291,0.697,2.309,2.394c0.029,2.727,0.012,5.454,0.012,8.18
		c0,0.389,0,0.779,0,1.176c0.16-0.012,0.266,0.008,0.289-0.029c2.738-3.914,4.945-8.079,5.51-12.9
		c0.91-7.784-3.139-13.813-10.674-16.041c-8.424-2.493-17.219,1.033-21.084,8.455c-0.178,0.346-0.324,0.711-0.582,1.279
		c0.619,0,1.078,0,1.535,0c7.781,0,15.559-0.002,23.34,0c1.645,0,1.654,0.023,1.666,1.689c0.025,3.398-0.033,2.798-2.756,2.805
		c-9.904,0.019-19.809,0.007-29.713,0.005c-1.679,0-1.926-0.256-1.933-1.967c-0.001-0.2,0-0.399,0-0.601
		c0.002-1.805,0.096-1.946,1.884-1.913c0.797,0.015,1.189-0.214,1.479-0.999c5.523-14.938,23.609-17.699,34.062-9.913
		c6.293,4.688,8.281,11.183,6.963,18.753c-1.189,6.816-4.662,12.564-8.824,17.931c-0.838,1.079-1.223,2.119-1.188,3.479
		c0.082,3.285,0.035,6.575,0.023,9.863c-0.01,2.129-0.604,2.719-2.705,2.719c-9.543,0.004-19.088,0.004-28.631,0
		c-2.369,0-3.27-0.725-3.019-3.087c0.476-4.453-0.905-8.115-3.409-11.809c-6.113-9.019-11.869-18.281-17.713-27.479
		c-0.913-1.436-2.001-1.945-3.619-1.611c-0.861,0.178-1.747,0.242-2.626,0.317c-1.103,0.097-2.236-0.524-2.448-1.35
		c-0.273-1.047,0.486-1.503,1.198-1.98c3.46-2.321,6.918-4.649,10.375-6.978c0.703-0.474,1.431-1.093,2.263-0.361
		c0.847,0.741,0.78,1.734,0.341,2.653c-0.533,1.118-1.158,2.198-1.774,3.274c-0.61,1.069-0.504,2.018,0.256,2.995
		c3.268,4.212,6.497,8.45,9.77,12.662c0.234,0.302,0.683,0.606,1.04,0.615C49.709,39.466,51.752,39.437,53.859,39.437z
		 M49.394,43.214c1.587,1.738,2.948,3.23,4.506,4.939c0-1.895,0-3.386,0-4.939C52.494,43.214,51.156,43.214,49.394,43.214z"/>
</g>
</svg>
