<?xml version="1.0" encoding="utf-8"?>
<!-- Generator: Adobe Illustrator 16.0.4, SVG Export Plug-In . SVG Version: 6.00 Build 0)  -->
<!DOCTYPE svg PUBLIC "-//W3C//DTD SVG 1.1//EN" "http://www.w3.org/Graphics/SVG/1.1/DTD/svg11.dtd">
<svg version="1.1" id="Layer_1" xmlns="http://www.w3.org/2000/svg" xmlns:xlink="http://www.w3.org/1999/xlink" x="0px" y="0px"
	 width="106.667px" height="53.333px" viewBox="0 0 106.667 53.333" enable-background="new 0 0 106.667 53.333"
	 xml:space="preserve">
<g>
	<path fill="#A4AF3A" d="M33.95,43.729h-6.82L13.278,20.292l-0.07,0.023v23.414H6.364V9.604h6.844L27.06,33.018l0.07-0.023V9.604
		h6.82V43.729z"/>
	<path fill="#A4AF3A" d="M67.981,29.737c0,4.234-1.305,7.707-3.914,10.418s-6.07,4.066-10.383,4.066
		c-4.281,0-7.715-1.355-10.301-4.066s-3.879-6.184-3.879-10.418v-6.141c0-4.219,1.289-7.688,3.867-10.406s6.008-4.078,10.289-4.078
		c4.312,0,7.777,1.359,10.395,4.078s3.926,6.188,3.926,10.406V29.737z M61.138,23.549c0-2.672-0.656-4.855-1.969-6.551
		s-3.148-2.543-5.508-2.543s-4.172,0.844-5.438,2.531s-1.898,3.875-1.898,6.562v6.188c0,2.719,0.637,4.926,1.91,6.621
		s3.09,2.543,5.449,2.543c2.375,0,4.211-0.848,5.508-2.543s1.945-3.902,1.945-6.621V23.549z"/>
	<path fill="#A4AF3A" d="M84.669,34.659l0.469,2.039h0.07l0.445-1.992l7.43-25.102h7.219L88.7,43.729h-7.031L70.067,9.604h7.242
		L84.669,34.659z"/>
</g>
</svg>
