<?xml version="1.0" encoding="utf-8"?>
<!-- Generator: Adobe Illustrator 16.0.4, SVG Export Plug-In . SVG Version: 6.00 Build 0)  -->
<!DOCTYPE svg PUBLIC "-//W3C//DTD SVG 1.1//EN" "http://www.w3.org/Graphics/SVG/1.1/DTD/svg11.dtd">
<svg version="1.1" id="Layer_1" xmlns="http://www.w3.org/2000/svg" xmlns:xlink="http://www.w3.org/1999/xlink" x="0px" y="0px"
	 width="89.5px" height="89.25px" viewBox="0 0 89.5 89.25" enable-background="new 0 0 89.5 89.25" xml:space="preserve">
<g>
	<path fill="#A4AF3A" d="M48.375,70.809c0,0,1.541-8.652,1.521-12.978c0,0,0.319-2.192,1.17-0.215c0,0,1.667,3.148,2.484,3.8
		c0,0,0.87,0.63,2.08-0.078c0,0,1.281-0.951,0.065-1.922c0,0-3.601-3.041-4.09-8.445c0,0-2.116-9.539,10.175-16.979
		c0,0,0.404-0.385,1.24-0.222c0,0,9.6,0.887,8.359,23.089c0,0-0.348,2.655,1.568,2.94c0,0,1.029,0.146,1.604-1.572
		c0.593-2.127,0.677-7.016,0.677-7.016c1.004-18.206-11.325-22.336-11.325-22.336c-0.902-0.078-0.817-1.22-0.817-1.22
		c-0.191-1.2-1.831-0.86-1.831-0.86c-1.799,0.242-1.307,1.551-1.307,1.551c0.152,0.93-0.455,0.96-0.455,0.96
		c-8.051,3.704-9.64,11.241-9.64,11.241c-0.923,1.963-1.362-2.54-1.362-2.54c-1.785-9.759,0.498-15.943,0.498-15.943
		c1.539-5.653,7.926-5.475,7.926-5.475c9.701-0.095,16.281,7.147,16.281,7.147c8.541,8.066,3.688,29.066,3.688,29.066
		c-0.223,1.424-0.701,4.631-1.193,5.989c-0.74,3.341-3.105,14.179-4.121,18.081c0,0-3.25,9.972-12.538,9.786
		C59.032,86.659,44.725,86.957,48.375,70.809z"/>
	<path fill="#A4AF3A" d="M42.527,54.719c0,0-2.4-8.427-2.835-12.736c0,0-0.542-2.16-1.184-0.098c0,0-1.327,3.305-2.085,4.027
		c0,0-0.795,0.736-2.094,0.154c0,0-1.345-0.826-0.244-1.911c0,0,3.257-3.403,3.191-8.825c0,0,1.135-9.711-11.862-15.834
		c0,0-0.433-0.351-1.265-0.123c0,0-9.453,1.893-5.922,23.836c0,0,0.611,2.617-1.256,3.099c0,0-1.031,0.233-1.767-1.394
		c-0.817-2.048-1.399-6.91-1.399-6.91c-2.869-18.008,8.967-23.389,8.967-23.389c0.894-0.172,0.696-1.303,0.696-1.303
		c0.065-1.211,1.731-1.025,1.731-1.025c1.818,0.031,1.457,1.396,1.457,1.396c-0.065,0.938,0.555,0.916,0.555,0.916
		c8.396,2.847,10.742,10.188,10.742,10.188c1.123,1.861,1.094-2.682,1.094-2.682c0.764-9.884-2.146-15.797-2.146-15.797
		c-2.109-5.462-8.44-4.64-8.44-4.64C18.81,2.566,12.998,10.46,12.998,10.46c-7.646,8.887-0.674,29.295-0.674,29.295
		c0.383,1.388,1.179,4.525,1.818,5.829c1.063,3.254,4.533,13.791,5.953,17.553c0,0,4.244,9.594,13.471,8.461
		C33.566,71.598,47.836,70.422,42.527,54.719z"/>
</g>
</svg>
