<?xml version="1.0" encoding="utf-8"?>
<!-- Generator: Adobe Illustrator 16.0.4, SVG Export Plug-In . SVG Version: 6.00 Build 0)  -->
<!DOCTYPE svg PUBLIC "-//W3C//DTD SVG 1.1//EN" "http://www.w3.org/Graphics/SVG/1.1/DTD/svg11.dtd">
<svg version="1.1" id="Layer_1" xmlns="http://www.w3.org/2000/svg" xmlns:xlink="http://www.w3.org/1999/xlink" x="0px" y="0px"
	 width="89.5px" height="105.75px" viewBox="0 0 89.5 105.75" enable-background="new 0 0 89.5 105.75" xml:space="preserve">
<g>
	<path fill="#A4AF3A" d="M52.764,53.954c-3.473-0.103-33.345-11.642-29.473-34.081c0,0,2.084-18.554,24.783-16.893
		c0,0,20.777,2.501,20.496,18.554c0,0,2.207,8.795-8.178,18.148c0,0-0.588,0.69-1.383,0.541c-0.406-0.058-2.893-0.649-5.318-1.512
		c-2.295-0.798-4.533-1.862-4.961-2.082c-0.893-0.475,0.078-0.96,0.078-0.96S64.002,25.418,55,15.17c0,0-9.203-10.044-19.246,0
		c0,0-5.693,7.211,2.222,15.922c6.16,6.773,11.629,8.025,20.612,11.438c0,0,1.191,0.277,0.82,1.457
		C58.405,47.258,55.327,54.037,52.764,53.954z"/>
	<path fill="#A4AF3A" d="M37.463,50.567c0,0-9.174,14.817-6.86,42.006c0.257,3.03,0.657,6.203,1.241,9.518
		c0,0,0.075,0.818,1.115,0.686c0,0,0.754-0.041,0.621-0.939c-0.148-0.896-1.207-6.967-1.326-9.264c0,0-0.041-0.513,0.719-0.596
		c0,0,0.901-0.246,1.025,0.574c0,0,1.346,7.938,1.654,9.441c0,0,0.074,0.849,1.007,0.742c0,0,1.05,0.059,0.919-0.836
		c-0.143-0.908-1.223-6.988-1.318-9.266c0,0-0.048-0.512,0.701-0.594c0,0,0.914-0.268,1.037,0.564c0,0,1.361,7.965,1.666,9.486
		c0,0,0.23,0.799,1.162,0.695c0,0,0.984,0.029,0.852-0.868c-0.141-0.901-1.219-6.978-1.316-9.264c0,0-0.049-0.513,0.703-0.594
		c0,0,0.91-0.265,1.035,0.573c0,0,1.359,7.961,1.666,9.477c0,0,0.23,0.799,1.164,0.698c0,0,0.964,0.067,0.822-0.845
		c-0.139-0.893-1.213-6.972-1.314-9.248c0,0-0.053-0.531,0.695-0.594c0,0,0.918-0.268,1.046,0.56c0,0,1.356,7.973,1.67,9.476
		c0,0,0.22,0.805,1.163,0.711c0,0,0.85-0.113,0.613-1.17c-0.225-1.066-2.102-8.592-2.665-14.623c0,0-0.368-0.938,0.774-0.984
		c0,0,0.887-0.369,1.038,0.471c0,0,0.833,5.766,1.718,8.46c0,0,0.048,1.141,1.248,1.141c0,0,1.238,0.206,0.877-1.353
		c0,0-0.834-2.546-1.771-7.63c0,0-0.416-1.143,0.691-1.143c0,0,1.025-0.354,1.08,0.629c0,0,1.502,6.747,1.916,8.204
		c0,0,0.11,1.134,1.25,0.983c0,0,1.193,0.044,0.936-1.188c0,0-7.289-19.998-5.906-37.992c0,0,0.398-0.958-1.047-1.43
		c-0.633-0.2-2.992-0.811-5.525-1.969c-2.309-1.059-4.602-2.379-5.994-3.118C37.709,49.899,37.463,50.567,37.463,50.567z"/>
</g>
</svg>
