<?xml version="1.0" encoding="utf-8"?>
<!-- Generator: Adobe Illustrator 16.0.4, SVG Export Plug-In . SVG Version: 6.00 Build 0)  -->
<!DOCTYPE svg PUBLIC "-//W3C//DTD SVG 1.1//EN" "http://www.w3.org/Graphics/SVG/1.1/DTD/svg11.dtd">
<svg version="1.1" id="Layer_1" xmlns="http://www.w3.org/2000/svg" xmlns:xlink="http://www.w3.org/1999/xlink" x="0px" y="0px"
	 width="112.333px" height="80.103px" viewBox="0 0 112.333 80.103" enable-background="new 0 0 112.333 80.103"
	 xml:space="preserve">
<g>
	<path fill="#353364" d="M55.369,22.313c2.532-6.507,4.717-9.387,4.717-9.387c1.902-1.99-3.761-1.474-3.761-1.474
		c-14.973,1.343-15.952,13.145-15.952,13.145c-0.355,4.492,0.642,5.635,1.278,5.916c0,0,1.538,0.247,3.371,0
		C46.855,30.266,52.987,28.432,55.369,22.313z M42.848,28.51c0,0-0.605,1.057-0.297-0.032c0,0,3.24-10.582,10.559-12.69
		c0,0,1.989-0.378,0.574,0.552C53.684,16.339,46.813,20.483,42.848,28.51z"/>
	<g>
		<path fill="#E5D5C4" d="M26.381,56.736c0.583,0.328,0.989-0.17,0.989-0.17l12.638-16.782c4.064,2.63,8.252,3.277,13.419,2.55
			c11.407-1.607,19.354-12.155,17.746-23.561C69.567,7.368,59.016-0.575,47.612,1.03C36.207,2.636,28.261,13.185,29.87,24.59
			c0.656,4.67,2.031,8.143,5.129,11.231L22.254,52.757c0,0-0.363,0.656,0.203,1.099C22.89,54.193,25.959,56.503,26.381,56.736z
			 M52.709,37.23c-9.261,1.559-16.335-3.989-17.646-13.288c-1.31-9.3,3.991-16.337,13.288-17.646
			c9.302-1.31,16.34,3.989,17.648,13.286C67.834,32.611,58.605,36.238,52.709,37.23z"/>
		<path fill="#E5D5C4" d="M61.949,60.977c0,0,1.278,0.015-0.074-3.49L53.408,35.52c0,0-1.593-4.139,1.508-5.329
			c0,0,3.579-1.717,5.257,2.637l3.5,9.083c0,0,0.368,0.651,0.658,0c0,0,0.555-2.025,2.899-2.133c0,0,2.608-0.656,3.963,2.446
			c0,0,0.265,0.691,0.526,0.05c0,0,0.67-2.229,3.438-2.47c0,0,2.58-0.072,3.627,2.643c0,0,0.245,0.638,0.53,0.145
			c0,0,0.361-1.951,2.81-2.451c0,0,3.013-0.432,4.144,2.504l3.225,8.363c0,0,2.097,7.448,1.333,10.965c0,0-0.866,5.675,0.369,9.101
			c0,0,0.428,1.107-0.606,1.507l-17.867,6.886c0,0-0.96,0.37-1.301-0.516c0,0-1.812-5.578-6.447-7.268l-14.462-6.383
			c0,0-2.556-1.685-1.605-4.47c0,0,0.868-4.057,5.778-2.087C54.684,58.742,59.99,61.393,61.949,60.977z"/>
	</g>
</g>
</svg>
