<?xml version="1.0" encoding="utf-8"?>
<!-- Generator: Adobe Illustrator 16.0.4, SVG Export Plug-In . SVG Version: 6.00 Build 0)  -->
<!DOCTYPE svg PUBLIC "-//W3C//DTD SVG 1.1//EN" "http://www.w3.org/Graphics/SVG/1.1/DTD/svg11.dtd">
<svg version="1.1" id="Layer_1" xmlns="http://www.w3.org/2000/svg" xmlns:xlink="http://www.w3.org/1999/xlink" x="0px" y="0px"
	 width="106.667px" height="53.333px" viewBox="0 0 106.667 53.333" enable-background="new 0 0 106.667 53.333"
	 xml:space="preserve">
<g>
	<path fill="#A4AF3A" d="M30.365,34.823c0-1.344-0.453-2.402-1.359-3.176s-2.547-1.52-4.922-2.238
		c-4.141-1.188-7.23-2.57-9.27-4.148s-3.059-3.789-3.059-6.633s1.176-5.141,3.527-6.891s5.41-2.625,9.176-2.625
		c3.828,0,6.91,0.984,9.246,2.953s3.504,4.484,3.504,7.547h-6.844c0-1.609-0.516-2.895-1.547-3.855s-2.516-1.441-4.453-1.441
		c-1.875,0-3.305,0.402-4.289,1.207s-1.477,1.848-1.477,3.129c0,1.188,0.523,2.141,1.57,2.859s2.906,1.5,5.578,2.344
		c3.828,1.078,6.695,2.453,8.602,4.125s2.859,3.938,2.859,6.797c0,2.984-1.133,5.305-3.398,6.961s-5.328,2.484-9.188,2.484
		c-3.797,0-7.062-0.945-9.797-2.836s-4.102-4.633-4.102-8.227h6.844c0,2.078,0.609,3.578,1.828,4.5s2.961,1.383,5.227,1.383
		c1.906,0,3.34-0.379,4.301-1.137S30.365,36.12,30.365,34.823z"/>
	<path fill="#A4AF3A" d="M63.13,28.729H48.998v9.75h16.523v5.25H42.154V9.604h23.32v5.273H48.998v8.578H63.13V28.729z"/>
	<path fill="#A4AF3A" d="M76.56,31.354v12.375h-6.844V9.604H83.31c4,0,7.105,0.984,9.316,2.953s3.316,4.617,3.316,7.945
		s-1.105,5.969-3.316,7.922s-5.316,2.93-9.316,2.93H76.56z M76.56,26.081h6.75c1.953,0,3.41-0.512,4.371-1.535
		s1.441-2.355,1.441-3.996c0-1.672-0.48-3.035-1.441-4.09s-2.418-1.582-4.371-1.582h-6.75V26.081z"/>
</g>
</svg>
