<?xml version="1.0" encoding="utf-8"?>
<!-- Generator: Adobe Illustrator 16.0.4, SVG Export Plug-In . SVG Version: 6.00 Build 0)  -->
<!DOCTYPE svg PUBLIC "-//W3C//DTD SVG 1.1//EN" "http://www.w3.org/Graphics/SVG/1.1/DTD/svg11.dtd">
<svg version="1.1" id="Layer_1" xmlns="http://www.w3.org/2000/svg" xmlns:xlink="http://www.w3.org/1999/xlink" x="0px" y="0px"
	 width="104.375px" height="105.875px" viewBox="0 0 104.375 105.875" enable-background="new 0 0 104.375 105.875"
	 xml:space="preserve">
<g>
	<path fill="#A4AF3A" d="M52.143,26.111c-14.705,0-26.67,11.964-26.67,26.669c0,14.706,11.965,26.669,26.67,26.669
		s26.67-11.963,26.67-26.669C78.812,38.075,66.848,26.111,52.143,26.111z M52.143,29.651c12.754,0,23.129,10.376,23.129,23.129
		H29.014C29.014,40.027,39.389,29.651,52.143,29.651z"/>
	<path fill="#A4AF3A" d="M52.143,20.871c1.195,0,2.164-0.969,2.164-2.164V5.385c0-1.195-0.969-2.164-2.164-2.164
		c-1.194,0-2.163,0.969-2.163,2.164v13.322C49.979,19.902,50.948,20.871,52.143,20.871z"/>
	<path fill="#A4AF3A" d="M52.143,84.69c-1.194,0-2.163,0.969-2.163,2.163v13.323c0,1.194,0.969,2.163,2.163,2.163
		c1.195,0,2.164-0.969,2.164-2.163V86.854C54.307,85.659,53.338,84.69,52.143,84.69z"/>
	<path fill="#A4AF3A" d="M99.211,50.617H85.888c-1.194,0-2.163,0.969-2.163,2.163s0.969,2.163,2.163,2.163h13.323
		c1.195,0,2.164-0.969,2.164-2.163S100.406,50.617,99.211,50.617z"/>
	<path fill="#A4AF3A" d="M20.342,52.78c0-1.194-0.969-2.163-2.163-2.163H4.855c-1.194,0-2.163,0.969-2.163,2.163
		s0.969,2.163,2.163,2.163h13.323C19.373,54.943,20.342,53.975,20.342,52.78z"/>
	<path fill="#A4AF3A" d="M76.03,31.166c0.554,0,1.107-0.212,1.529-0.635l9.421-9.42c0.845-0.846,0.845-2.215,0-3.06
		c-0.844-0.845-2.215-0.845-3.059,0L74.5,27.473c-0.844,0.845-0.844,2.215,0,3.059C74.923,30.954,75.477,31.166,76.03,31.166z"/>
	<path fill="#A4AF3A" d="M26.635,75.276l-9.421,9.421c-0.845,0.845-0.845,2.215,0,3.059c0.423,0.423,0.976,0.635,1.53,0.635
		c0.553,0,1.107-0.212,1.529-0.635l9.42-9.42c0.846-0.845,0.846-2.215,0-3.06C28.85,74.432,27.479,74.432,26.635,75.276z"/>
	<path fill="#A4AF3A" d="M77.73,75.276c-0.844-0.845-2.215-0.845-3.06,0s-0.845,2.215,0.001,3.06l9.421,9.421
		c0.422,0.422,0.976,0.634,1.529,0.634s1.107-0.212,1.53-0.635c0.844-0.844,0.844-2.214,0-3.059L77.73,75.276z"/>
	<path fill="#A4AF3A" d="M26.635,30.095c0.422,0.423,0.976,0.634,1.529,0.634s1.107-0.211,1.529-0.633
		c0.846-0.846,0.846-2.215,0.001-3.059l-9.421-9.422c-0.845-0.846-2.215-0.846-3.06-0.001s-0.845,2.215,0,3.06L26.635,30.095z"/>
</g>
</svg>
