<?xml version="1.0" encoding="utf-8"?>
<!-- Generator: Adobe Illustrator 16.0.4, SVG Export Plug-In . SVG Version: 6.00 Build 0)  -->
<!DOCTYPE svg PUBLIC "-//W3C//DTD SVG 1.1//EN" "http://www.w3.org/Graphics/SVG/1.1/DTD/svg11.dtd">
<svg version="1.1" id="Layer_1" xmlns="http://www.w3.org/2000/svg" xmlns:xlink="http://www.w3.org/1999/xlink" x="0px" y="0px"
	 width="104.375px" height="105.875px" viewBox="0 0 104.375 105.875" enable-background="new 0 0 104.375 105.875"
	 xml:space="preserve">
<g>
	<path fill="#A4AF3A" d="M52.464,26.23c-14.706,0-26.67,11.963-26.67,26.669c0,14.705,11.964,26.669,26.67,26.669
		c14.705,0,26.668-11.964,26.668-26.669C79.132,38.193,67.169,26.23,52.464,26.23z"/>
	<path fill="#A4AF3A" d="M52.464,20.99c1.194,0,2.163-0.969,2.163-2.164V5.503c0-1.194-0.969-2.163-2.163-2.163
		c-1.195,0-2.164,0.969-2.164,2.163v13.323C50.3,20.021,51.269,20.99,52.464,20.99z"/>
	<path fill="#A4AF3A" d="M52.464,84.809c-1.195,0-2.164,0.969-2.164,2.164v13.322c0,1.195,0.969,2.164,2.164,2.164
		c1.194,0,2.163-0.969,2.163-2.164V86.973C54.627,85.777,53.658,84.809,52.464,84.809z"/>
	<path fill="#A4AF3A" d="M99.532,50.736H86.208c-1.194,0-2.163,0.969-2.163,2.163s0.969,2.163,2.163,2.163h13.324
		c1.194,0,2.163-0.969,2.163-2.163S100.727,50.736,99.532,50.736z"/>
	<path fill="#A4AF3A" d="M20.663,52.899c0-1.194-0.969-2.163-2.164-2.163H5.177c-1.195,0-2.164,0.969-2.164,2.163
		s0.969,2.163,2.164,2.163h13.322C19.694,55.062,20.663,54.094,20.663,52.899z"/>
	<path fill="#A4AF3A" d="M76.351,31.284c0.554,0,1.107-0.211,1.529-0.634l9.421-9.421c0.845-0.845,0.845-2.214,0-3.059
		s-2.215-0.845-3.059,0l-9.421,9.421c-0.846,0.844-0.846,2.214,0,3.059C75.243,31.073,75.798,31.284,76.351,31.284z"/>
	<path fill="#A4AF3A" d="M26.955,75.396l-9.421,9.421c-0.845,0.844-0.845,2.214,0,3.059c0.423,0.423,0.977,0.634,1.53,0.634
		s1.107-0.211,1.529-0.634l9.421-9.42c0.845-0.846,0.845-2.215,0-3.06S27.8,74.551,26.955,75.396z"/>
	<path fill="#A4AF3A" d="M78.052,75.395c-0.845-0.844-2.215-0.844-3.061,0.001c-0.844,0.845-0.844,2.214,0.001,3.06l9.421,9.42
		c0.422,0.423,0.977,0.634,1.529,0.634c0.554,0,1.107-0.211,1.53-0.634c0.845-0.845,0.845-2.215-0.001-3.059L78.052,75.395z"/>
	<path fill="#A4AF3A" d="M26.955,30.214c0.423,0.423,0.976,0.634,1.53,0.634c0.553,0,1.107-0.211,1.529-0.634
		c0.845-0.845,0.845-2.214,0-3.06l-9.42-9.421c-0.846-0.845-2.215-0.845-3.061,0c-0.845,0.845-0.845,2.215,0,3.06L26.955,30.214z"/>
</g>
</svg>
