<?xml version="1.0" encoding="utf-8"?>
<!-- Generator: Adobe Illustrator 16.0.4, SVG Export Plug-In . SVG Version: 6.00 Build 0)  -->
<!DOCTYPE svg PUBLIC "-//W3C//DTD SVG 1.1//EN" "http://www.w3.org/Graphics/SVG/1.1/DTD/svg11.dtd">
<svg version="1.1" id="Layer_1" xmlns="http://www.w3.org/2000/svg" xmlns:xlink="http://www.w3.org/1999/xlink" x="0px" y="0px"
	 width="104.375px" height="105.875px" viewBox="0 0 104.375 105.875" enable-background="new 0 0 104.375 105.875"
	 xml:space="preserve">
<g>
	<path fill="#A4AF3A" d="M52.143,26.616c-14.705,0-26.669,11.964-26.669,26.669s11.964,26.67,26.669,26.67
		c14.706,0,26.67-11.965,26.67-26.67S66.849,26.616,52.143,26.616z M52.143,76.414c-12.753,0-23.129-10.375-23.129-23.129
		S39.39,30.156,52.143,30.156c12.754,0,23.13,10.375,23.13,23.129S64.896,76.414,52.143,76.414z"/>
	<path fill="#A4AF3A" d="M52.143,21.376c1.195,0,2.164-0.969,2.164-2.163V5.889c0-1.194-0.969-2.162-2.164-2.162
		c-1.193,0-2.162,0.968-2.162,2.162v13.324C49.98,20.407,50.949,21.376,52.143,21.376z"/>
	<path fill="#A4AF3A" d="M52.143,85.195c-1.193,0-2.162,0.969-2.162,2.163v13.323c0,1.194,0.969,2.163,2.162,2.163
		c1.195,0,2.164-0.969,2.164-2.163V87.358C54.307,86.164,53.338,85.195,52.143,85.195z"/>
	<path fill="#A4AF3A" d="M99.212,51.122H85.889c-1.195,0-2.164,0.969-2.164,2.163c0,1.195,0.969,2.164,2.164,2.164h13.323
		c1.194,0,2.163-0.969,2.163-2.164C101.375,52.091,100.406,51.122,99.212,51.122z"/>
	<path fill="#A4AF3A" d="M20.343,53.285c0-1.194-0.969-2.163-2.163-2.163H4.856c-1.194,0-2.163,0.969-2.163,2.163
		c0,1.195,0.969,2.164,2.163,2.164H18.18C19.374,55.449,20.343,54.48,20.343,53.285z"/>
	<path fill="#A4AF3A" d="M76.031,31.67c0.553,0,1.107-0.211,1.529-0.633l9.42-9.422c0.846-0.844,0.846-2.214,0-3.059
		c-0.844-0.845-2.215-0.845-3.059,0l-9.421,9.421c-0.845,0.845-0.845,2.214,0,3.06C74.924,31.459,75.477,31.67,76.031,31.67z"/>
	<path fill="#A4AF3A" d="M26.635,75.781l-9.42,9.421c-0.846,0.845-0.846,2.214,0,3.06c0.422,0.422,0.976,0.633,1.529,0.633
		s1.107-0.211,1.529-0.633l9.421-9.421c0.845-0.845,0.845-2.215,0-3.06S27.479,74.937,26.635,75.781z"/>
	<path fill="#A4AF3A" d="M77.73,75.781c-0.844-0.844-2.214-0.845-3.059,0s-0.845,2.215,0,3.06l9.422,9.421
		c0.422,0.422,0.976,0.633,1.529,0.633c0.553,0,1.107-0.211,1.529-0.633c0.845-0.846,0.845-2.215,0-3.061L77.73,75.781z"/>
	<path fill="#A4AF3A" d="M26.635,30.6c0.423,0.423,0.977,0.634,1.53,0.634s1.106-0.211,1.529-0.634
		c0.845-0.845,0.845-2.215,0.001-3.059l-9.422-9.422c-0.845-0.844-2.215-0.845-3.059,0c-0.846,0.846-0.846,2.215-0.001,3.06
		L26.635,30.6z"/>
</g>
</svg>
