<?xml version="1.0" encoding="utf-8"?>
<!-- Generator: Adobe Illustrator 16.0.4, SVG Export Plug-In . SVG Version: 6.00 Build 0)  -->
<!DOCTYPE svg PUBLIC "-//W3C//DTD SVG 1.1//EN" "http://www.w3.org/Graphics/SVG/1.1/DTD/svg11.dtd">
<svg version="1.1" id="Layer_1" xmlns="http://www.w3.org/2000/svg" xmlns:xlink="http://www.w3.org/1999/xlink" x="0px" y="0px"
	 width="89.5px" height="83.25px" viewBox="0 0 89.5 83.25" enable-background="new 0 0 89.5 83.25" xml:space="preserve">
<g>
	<path fill="#A4AF3A" d="M19.701,16.883c0,0-19.946,15.061-14.172,44.852c0,0,0.697,2.211,2.646,1.793c0,0,1.592-0.135,1.355-2.618
		c0,0-1.39-8.444,5.387-12.97c0,0,5.18-3.999,12.994-0.469c0,0,1.238,1.144,2.799,0.553c0,0,1.361-0.677,0.832-3.013
		c0,0-2.116-8.123,5.173-12.931c0,0,5.448-4.335,12.983-0.68c0,0,1.421,1.27,3.042,0.583c0,0,1.502-0.866,0.608-3.165
		c0,0-1.41-8.674,5.178-12.674c0,0,5.381-4.229,12.774-0.712c0,0,2.009,1.218,3.017,0.104c0,0,1.646-1.447-0.205-3.328
		c0,0-21.559-14.952-47.318-0.801c0,0-1.553,1.543-2.361,0.056c0,0-0.93-1.818-3.585-0.521c-0.567,0.275-1.945,2.012-1.172,3.11
		C19.677,14.054,21.654,15.785,19.701,16.883z"/>
	<path fill="#A4AF3A" d="M38.578,39.244l24.004,32.967c0,0,4.645,5.911,11.832,2.1c0,0,8.787-4.471,1.923-14.451
		c0,0-3.711-6.584-6.266-4.287c0,0-2.377,1.357-0.422,4.137l3.466,4.66c0,0,1.709,2.598-0.687,5.115c0,0-2.63,2.262-5.826-0.867
		L43.234,36.603c0,0-2.179-3.83-4.549-2.246C38.686,34.356,36.012,35.624,38.578,39.244z"/>
</g>
</svg>
