<?xml version="1.0" encoding="utf-8"?>
<!-- Generator: Adobe Illustrator 16.0.4, SVG Export Plug-In . SVG Version: 6.00 Build 0)  -->
<!DOCTYPE svg PUBLIC "-//W3C//DTD SVG 1.1//EN" "http://www.w3.org/Graphics/SVG/1.1/DTD/svg11.dtd">
<svg version="1.1" id="Layer_1" xmlns="http://www.w3.org/2000/svg" xmlns:xlink="http://www.w3.org/1999/xlink" x="0px" y="0px"
	 width="89.5px" height="105.875px" viewBox="0 0 89.5 105.875" enable-background="new 0 0 89.5 105.875" xml:space="preserve">
<g>
	<path fill="#A4AF3A" d="M46.924,103.552h-3.785v-0.047c-17.363-0.871-24.758-13.57-25.641-15.209
		c-1.307-1.801-11.963-17.974,4.37-45.47l0.042-0.067c4.557-6.993,16.705-26.178,18.178-30.895c0.213-0.68,0.417-1.4,0.615-2.097
		c0.973-3.437,1.742-6.151,3.939-6.701l0.533-0.134l0.523,0.174c2.021,0.671,2.726,3.229,3.617,6.467
		c0.21,0.762,0.428,1.55,0.659,2.292c1.473,4.716,13.622,23.9,18.179,30.894l0.041,0.067c16.333,27.496,5.677,43.669,4.37,45.47
		c-0.883,1.639-8.278,14.339-25.642,15.209V103.552z M45.031,101.095L45.031,101.095l0.001-1.328
		c17.249,0,24.173-13.208,24.241-13.342l0.08-0.158l0.108-0.141c0.022-0.029,2.81-3.771,3.652-10.666
		c1.418-11.594-3.646-23.07-8.153-30.668c-0.943-1.448-16.687-25.674-18.6-31.799c-0.25-0.803-0.477-1.622-0.694-2.415
		c-0.177-0.64-0.394-1.427-0.618-2.141c-0.256,0.777-0.504,1.655-0.704,2.362c-0.204,0.72-0.415,1.464-0.642,2.193
		c-1.914,6.125-17.656,30.351-18.6,31.799c-15.65,26.376-4.615,41.188-4.502,41.334l0.109,0.141l0.08,0.158
		c0.279,0.541,7.079,13.342,24.24,13.342V101.095z"/>
</g>
</svg>
