<?xml version="1.0" encoding="utf-8"?>
<!-- Generator: Adobe Illustrator 16.0.4, SVG Export Plug-In . SVG Version: 6.00 Build 0)  -->
<!DOCTYPE svg PUBLIC "-//W3C//DTD SVG 1.1//EN" "http://www.w3.org/Graphics/SVG/1.1/DTD/svg11.dtd">
<svg version="1.1" id="Layer_1" xmlns="http://www.w3.org/2000/svg" xmlns:xlink="http://www.w3.org/1999/xlink" x="0px" y="0px"
	 width="89.5px" height="105.875px" viewBox="0 0 89.5 105.875" enable-background="new 0 0 89.5 105.875" xml:space="preserve">
<path fill="#A4AF3A" d="M68.887,42.826l-0.042-0.067c-4.558-6.993-16.706-26.178-18.179-30.894c-0.232-0.742-0.449-1.53-0.659-2.292
	c-0.892-3.238-1.597-5.796-3.618-6.467l-0.521-0.174l-0.534,0.134c-2.198,0.55-2.967,3.265-3.94,6.701
	c-0.197,0.696-0.4,1.417-0.613,2.097c-1.474,4.717-13.622,23.901-18.18,30.895l-0.041,0.067c-16.332,27.496-5.676,43.669-4.37,45.47
	c0.883,1.639,8.277,14.338,25.642,15.209v0.047h3.783v-0.047c17.364-0.87,24.76-13.57,25.643-15.209
	C74.562,86.495,85.219,70.322,68.887,42.826z M25.794,44.792c0.942-1.448,16.687-25.674,18.599-31.799
	c0.229-0.729,0.438-1.474,0.643-2.193c0.2-0.707,0.449-1.585,0.704-2.362c0.225,0.714,0.442,1.501,0.618,2.141
	c0.219,0.793,0.443,1.612,0.694,2.415c1.913,6.125,17.656,30.351,18.599,31.799c1.62,2.729,3.31,5.961,4.746,9.517H21.033
	C22.238,51.329,23.799,48.155,25.794,44.792z"/>
</svg>
